<?xml version="1.0" encoding="UTF-8" standalone="no"?>
<!-- Created with Inkscape (http://www.inkscape.org/) -->

<svg
   version="1.1"
   id="svg2"
   width="930.20386"
   height="920.73779"
   viewBox="0 0 930.20386 920.73779"
   sodipodi:docname="logo.svg"
   inkscape:version="1.2.1 (9c6d41e410, 2022-07-14)"
   xmlns:inkscape="http://www.inkscape.org/namespaces/inkscape"
   xmlns:sodipodi="http://sodipodi.sourceforge.net/DTD/sodipodi-0.dtd"
   xmlns="http://www.w3.org/2000/svg"
   xmlns:svg="http://www.w3.org/2000/svg">
  <defs
     id="defs6">
    <linearGradient
       x1="0"
       y1="0"
       x2="1"
       y2="0"
       gradientUnits="userSpaceOnUse"
       gradientTransform="matrix(178.39157,0,0,-178.39157,191.67421,864.4906)"
       spreadMethod="pad"
       id="linearGradient30">
      <stop
         style="stop-opacity:1;stop-color:#fbe363"
         offset="0"
         id="stop24" />
      <stop
         style="stop-opacity:1;stop-color:#fbe363"
         offset="0.50671849"
         id="stop26" />
      <stop
         style="stop-opacity:1;stop-color:#fbe363"
         offset="1"
         id="stop28" />
    </linearGradient>
    <clipPath
       clipPathUnits="userSpaceOnUse"
       id="clipPath40">
      <path
         d="M 0,1080 H 1080 V 0 H 0 Z"
         id="path38" />
    </clipPath>
    <linearGradient
       x1="0"
       y1="0"
       x2="1"
       y2="0"
       gradientUnits="userSpaceOnUse"
       gradientTransform="matrix(178.39186,0,0,-178.39186,709.93488,864.4906)"
       spreadMethod="pad"
       id="linearGradient64">
      <stop
         style="stop-opacity:1;stop-color:#fbe363"
         offset="0"
         id="stop58" />
      <stop
         style="stop-opacity:1;stop-color:#fbe363"
         offset="0.50671849"
         id="stop60" />
      <stop
         style="stop-opacity:1;stop-color:#fbe363"
         offset="1"
         id="stop62" />
    </linearGradient>
    <clipPath
       clipPathUnits="userSpaceOnUse"
       id="clipPath74">
      <path
         d="M 0,1080 H 1080 V 0 H 0 Z"
         id="path72" />
    </clipPath>
    <linearGradient
       x1="0"
       y1="0"
       x2="1"
       y2="0"
       gradientUnits="userSpaceOnUse"
       gradientTransform="matrix(178.39157,0,0,-178.39157,450.80453,608.90985)"
       spreadMethod="pad"
       id="linearGradient98">
      <stop
         style="stop-opacity:1;stop-color:#fbe363"
         offset="0"
         id="stop92" />
      <stop
         style="stop-opacity:1;stop-color:#fbe363"
         offset="0.50671849"
         id="stop94" />
      <stop
         style="stop-opacity:1;stop-color:#fbe363"
         offset="1"
         id="stop96" />
    </linearGradient>
    <clipPath
       clipPathUnits="userSpaceOnUse"
       id="clipPath108">
      <path
         d="M 0,1080 H 1080 V 0 H 0 Z"
         id="path106" />
    </clipPath>
    <linearGradient
       x1="0"
       y1="0"
       x2="1"
       y2="0"
       gradientUnits="userSpaceOnUse"
       gradientTransform="matrix(178.39157,0,0,-178.39157,191.67421,353.32922)"
       spreadMethod="pad"
       id="linearGradient132">
      <stop
         style="stop-opacity:1;stop-color:#fbe363"
         offset="0"
         id="stop126" />
      <stop
         style="stop-opacity:1;stop-color:#fbe363"
         offset="0.50671849"
         id="stop128" />
      <stop
         style="stop-opacity:1;stop-color:#fbe363"
         offset="1"
         id="stop130" />
    </linearGradient>
    <clipPath
       clipPathUnits="userSpaceOnUse"
       id="clipPath142">
      <path
         d="M 0,1080 H 1080 V 0 H 0 Z"
         id="path140" />
    </clipPath>
    <linearGradient
       x1="0"
       y1="0"
       x2="1"
       y2="0"
       gradientUnits="userSpaceOnUse"
       gradientTransform="matrix(178.39186,0,0,-178.39186,709.93488,353.32922)"
       spreadMethod="pad"
       id="linearGradient166">
      <stop
         style="stop-opacity:1;stop-color:#fbe363"
         offset="0"
         id="stop160" />
      <stop
         style="stop-opacity:1;stop-color:#fbe363"
         offset="0.50671849"
         id="stop162" />
      <stop
         style="stop-opacity:1;stop-color:#fbe363"
         offset="1"
         id="stop164" />
    </linearGradient>
    <clipPath
       clipPathUnits="userSpaceOnUse"
       id="clipPath176">
      <path
         d="M 0,1080 H 1080 V 0 H 0 Z"
         id="path174" />
    </clipPath>
    <linearGradient
       x1="0"
       y1="0"
       x2="1"
       y2="0"
       gradientUnits="userSpaceOnUse"
       gradientTransform="matrix(437.52213,0,0,-437.52213,450.80444,736.70013)"
       spreadMethod="pad"
       id="linearGradient200">
      <stop
         style="stop-opacity:1;stop-color:#fbe363"
         offset="0"
         id="stop194" />
      <stop
         style="stop-opacity:1;stop-color:#fbe363"
         offset="0.50671849"
         id="stop196" />
      <stop
         style="stop-opacity:1;stop-color:#fbe363"
         offset="1"
         id="stop198" />
    </linearGradient>
    <clipPath
       clipPathUnits="userSpaceOnUse"
       id="clipPath210">
      <path
         d="M 0,1080 H 1080 V 0 H 0 Z"
         id="path208" />
    </clipPath>
    <linearGradient
       x1="0"
       y1="0"
       x2="1"
       y2="0"
       gradientUnits="userSpaceOnUse"
       gradientTransform="matrix(437.52213,0,0,-437.52213,191.674,481.11963)"
       spreadMethod="pad"
       id="linearGradient234">
      <stop
         style="stop-opacity:1;stop-color:#fbe363"
         offset="0"
         id="stop228" />
      <stop
         style="stop-opacity:1;stop-color:#fbe363"
         offset="0.50671849"
         id="stop230" />
      <stop
         style="stop-opacity:1;stop-color:#fbe363"
         offset="1"
         id="stop232" />
    </linearGradient>
    <clipPath
       clipPathUnits="userSpaceOnUse"
       id="clipPath244">
      <path
         d="M 0,1080 H 1080 V 0 H 0 Z"
         id="path242" />
    </clipPath>
  </defs>
  <sodipodi:namedview
     id="namedview4"
     pagecolor="#ffffff"
     bordercolor="#000000"
     borderopacity="0.25"
     inkscape:showpageshadow="2"
     inkscape:pageopacity="0.0"
     inkscape:pagecheckerboard="0"
     inkscape:deskcolor="#d1d1d1"
     showgrid="false"
     inkscape:zoom="0.73599837"
     inkscape:cx="546.87621"
     inkscape:cy="478.26193"
     inkscape:window-width="1920"
     inkscape:window-height="1131"
     inkscape:window-x="0"
     inkscape:window-y="0"
     inkscape:window-maximized="1"
     inkscape:current-layer="g10">
    <inkscape:page
       x="0"
       y="0"
       id="page8"
       width="930.20386"
       height="920.73779" />
  </sodipodi:namedview>
  <g
     id="g10"
     inkscape:groupmode="layer"
     inkscape:label="Page 1"
     transform="matrix(1.3333333,0,0,-1.3333333,-254.89839,1272.2487)">
    <g
       id="g14"
       style="stroke-width:0.99975002;stroke-dasharray:none;fill:#fce864;fill-opacity:1;stroke:none">
      <g
         id="g20"
         style="stroke-width:0.99975002;stroke-dasharray:none;fill:#fce864;fill-opacity:1;stroke:none">
        <g
           id="g22"
           style="stroke-width:0.99975002;stroke-dasharray:none;fill:#fce864;fill-opacity:1;stroke:none">
          <path
             d="m 191.674,864.49 c -2.03704,-56.16004 57.60302,-102.36163 111.48761,-86.3869 54.5758,12.07069 84.51944,80.71171 56.139,128.90342 -24.8539,49.9266 -98.4721,62.47558 -138.40375,23.50867 C 202.43279,913.90358 191.51616,889.33834 191.674,864.49 Z"
             style="fill:#fce864;stroke:none;stroke-width:0.99975002;stroke-dasharray:none;fill-opacity:1"
             id="path32" />
        </g>
      </g>
    </g>
    <g
       id="g36"
       clip-path="url(#clipPath40)"
       style="fill:#fce864;fill-opacity:1;stroke:none;stroke-width:0.99975002;stroke-dasharray:none">
      <g
         id="g42"
         transform="translate(370.0658,864.4904)"
         style="fill:#fce864;fill-opacity:1;stroke:none;stroke-width:0.99975002;stroke-dasharray:none">
        <path
           style="color:#000000;fill:#fce864;stroke-miterlimit:10;fill-opacity:1;stroke:none;stroke-width:0.99975002;stroke-dasharray:none"
           d="m -89.195312,-89.695312 c -56.470118,-2.044445 -102.937318,57.923952 -86.872908,112.109839 12.14245,54.876654 81.163057,84.997033 129.624721,56.454 50.2045347,-24.99343 62.828871,-99.020763 23.640468,-139.175176 -16.70414,-18.566741 -41.405098,-29.547212 -66.392281,-29.388663 z m 0,1 C -33.345627,-90.725475 12.593937,-31.41569 -3.2919512,22.168566 -15.292198,76.443112 -83.55402,106.20842 -131.47573,77.991608 c -49.64818,-24.713891 -62.12144,-97.922282 -23.37651,-137.630578 16.51883,-18.360999 40.94791,-29.213459 65.656928,-29.056342 z"
           id="path44" />
      </g>
    </g>
    <g
       id="g48"
       style="fill:#fce864;fill-opacity:1;stroke:none;stroke-width:0.99975002;stroke-dasharray:none">
      <g
         id="g54"
         style="fill:#fce864;fill-opacity:1;stroke:none;stroke-width:0.99975002;stroke-dasharray:none">
        <g
           id="g56"
           style="fill:#fce864;fill-opacity:1;stroke:none;stroke-width:0.99975002;stroke-dasharray:none">
          <path
             d="m 709.935,864.49 c -2.03734,-56.16012 57.60267,-102.36169 111.48727,-86.3869 54.57562,12.07084 84.52012,80.71166 56.13914,128.90342 -24.85415,49.92645 -98.47221,62.47567 -138.40395,23.50867 C 720.69347,913.90354 709.77716,889.33825 709.935,864.49 Z"
             style="fill:#fce864;stroke:none;fill-opacity:1;stroke-width:0.99975002;stroke-dasharray:none"
             id="path66" />
        </g>
      </g>
    </g>
    <g
       id="g70"
       clip-path="url(#clipPath74)"
       style="fill:#fce864;fill-opacity:1;stroke:none;stroke-width:0.99975002;stroke-dasharray:none">
      <g
         id="g76"
         transform="translate(888.3267,864.4904)"
         style="fill:#fce864;fill-opacity:1;stroke:none;stroke-width:0.99975002;stroke-dasharray:none">
        <path
           style="color:#000000;fill:#fce864;stroke-miterlimit:10;fill-opacity:1;stroke:none;stroke-width:0.99975002;stroke-dasharray:none"
           d="m -89.195312,-89.695312 c -56.470418,-2.044815 -102.937298,57.92388 -86.872978,112.109837 12.14204,54.876787 81.162836,84.996995 129.62435,56.454004 50.2047222,-24.993333 62.82961,-99.020849 23.640561,-139.175181 -16.704137,-18.566532 -41.404852,-29.547175 -66.391933,-29.38866 z m 0,1 C -33.345944,-90.725095 12.593959,-31.41562 -3.2920133,22.168563 -15.292681,76.442976 -83.554312,106.20846 -131.47617,77.99161 c -49.648,-24.71399 -62.1207,-97.922205 -23.37642,-137.630582 16.51883,-18.361208 40.94816,-29.213491 65.657278,-29.05634 z"
           id="path78" />
      </g>
    </g>
    <g
       id="g82"
       style="fill:#fce864;fill-opacity:1;stroke:none;stroke-width:0.99975002;stroke-dasharray:none">
      <g
         id="g88"
         style="fill:#fce864;fill-opacity:1;stroke:none;stroke-width:0.99975002;stroke-dasharray:none">
        <g
           id="g90"
           style="fill:#fce864;fill-opacity:1;stroke:none;stroke-width:0.99975002;stroke-dasharray:none">
          <path
             d="m 450.805,608.91 c -2.03755,-56.15982 57.60133,-102.36307 111.48627,-86.38784 54.57543,12.07137 84.52014,80.71225 56.13914,128.90413 -24.85439,49.92576 -98.47187,62.47465 -138.4035,23.50835 C 461.56305,658.32316 450.64714,633.75799 450.805,608.91 Z"
             style="fill:#fce864;stroke:none;fill-opacity:1;stroke-width:0.99975002;stroke-dasharray:none"
             id="path100" />
        </g>
      </g>
    </g>
    <g
       id="g104"
       clip-path="url(#clipPath108)"
       style="fill:#fce864;fill-opacity:1;stroke:none;stroke-width:0.99975002;stroke-dasharray:none">
      <g
         id="g110"
         transform="translate(629.1961,608.91)"
         style="fill:#fce864;fill-opacity:1;stroke:none;stroke-width:0.99975002;stroke-dasharray:none">
        <path
           style="color:#000000;fill:#fce864;stroke-miterlimit:10;fill-opacity:1;stroke:none;stroke-width:0.99975002;stroke-dasharray:none"
           d="m -89.195312,-89.695312 c -56.470368,-2.044739 -102.937438,57.923849 -86.872908,112.109839 12.14245,54.876654 81.163057,84.997033 129.624721,56.454 50.2046505,-24.993502 62.828863,-99.021075 23.640466,-139.175571 -16.704172,-18.566662 -41.40518,-29.546818 -66.392279,-29.388268 z m 0,1 C -33.345368,-90.72578 12.594059,-31.415794 -3.2919512,22.168566 -15.292198,76.443112 -83.55402,106.20842 -131.47573,77.991608 c -49.64829,-24.713964 -62.12144,-97.922596 -23.37651,-137.630977 16.51886,-18.36092 40.948,-29.213062 65.656928,-29.055943 z"
           id="path112" />
      </g>
    </g>
    <g
       id="g116"
       style="fill:#fce864;fill-opacity:1;stroke:none;stroke-width:0.99975002;stroke-dasharray:none">
      <g
         id="g122"
         style="fill:#fce864;fill-opacity:1;stroke:none;stroke-width:0.99975002;stroke-dasharray:none">
        <g
           id="g124"
           style="fill:#fce864;fill-opacity:1;stroke:none;stroke-width:0.99975002;stroke-dasharray:none">
          <path
             d="m 191.674,353.329 c -2.03704,-56.16004 57.60302,-102.36163 111.48761,-86.3869 54.57567,12.07065 84.51949,80.71156 56.139,128.90319 -24.85427,49.92613 -98.47198,62.47438 -138.40375,23.50835 C 202.43274,402.74229 191.51614,378.17718 191.674,353.329 Z"
             style="fill:#fce864;stroke:none;fill-opacity:1;stroke-width:0.99975002;stroke-dasharray:none"
             id="path134" />
        </g>
      </g>
    </g>
    <g
       id="g138"
       clip-path="url(#clipPath142)"
       style="fill:#fce864;fill-opacity:1;stroke:none;stroke-width:0.99975002;stroke-dasharray:none">
      <g
         id="g144"
         transform="translate(370.0658,353.3292)"
         style="fill:#fce864;fill-opacity:1;stroke:none;stroke-width:0.99975002;stroke-dasharray:none">
        <path
           style="color:#000000;fill:#fce864;stroke-miterlimit:10;fill-opacity:1;stroke:none;stroke-width:0.99975002;stroke-dasharray:none"
           d="m -89.195312,-89.695312 c -56.470368,-2.044739 -102.937438,57.923849 -86.872908,112.109839 12.14245,54.876654 81.163057,84.997033 129.624721,56.454 50.2046505,-24.993502 62.828863,-99.021075 23.640466,-139.175571 -16.704172,-18.566662 -41.40518,-29.546818 -66.392279,-29.388268 z m 0,1 C -33.345368,-90.72578 12.594059,-31.415794 -3.2919512,22.168566 -15.292198,76.443112 -83.55402,106.20842 -131.47573,77.991608 c -49.64829,-24.713964 -62.12144,-97.922596 -23.37651,-137.630977 16.51886,-18.36092 40.948,-29.213062 65.656928,-29.055943 z"
           id="path146" />
      </g>
    </g>
    <g
       id="g150"
       style="fill:#fce864;fill-opacity:1;stroke:none;stroke-width:0.99975002;stroke-dasharray:none">
      <g
         id="g156"
         style="fill:#fce864;fill-opacity:1;stroke:none;stroke-width:0.99975002;stroke-dasharray:none">
        <g
           id="g158"
           style="fill:#fce864;fill-opacity:1;stroke:none;stroke-width:0.99975002;stroke-dasharray:none">
          <path
             d="m 709.935,353.329 c -2.03734,-56.16012 57.60267,-102.36169 111.48727,-86.3869 54.57548,12.0708 84.52017,80.71152 56.13914,128.90319 -24.85451,49.92598 -98.47208,62.47447 -138.40395,23.50835 C 720.69342,402.74226 709.77714,378.1771 709.935,353.329 Z"
             style="fill:#fce864;stroke:none;fill-opacity:1;stroke-width:0.99975002;stroke-dasharray:none"
             id="path168" />
        </g>
      </g>
    </g>
    <g
       id="g172"
       clip-path="url(#clipPath176)"
       style="fill:#fce864;fill-opacity:1;stroke:none;stroke-width:0.99975002;stroke-dasharray:none">
      <g
         id="g178"
         transform="translate(888.3267,353.3292)"
         style="fill:#fce864;fill-opacity:1;stroke:none;stroke-width:0.99975002;stroke-dasharray:none">
        <path
           style="color:#000000;fill:#fce864;stroke-miterlimit:10;fill-opacity:1;stroke:none;stroke-width:0.99975002;stroke-dasharray:none"
           d="m -89.195312,-89.695312 c -56.470678,-2.045113 -102.937418,57.923778 -86.872978,112.109837 12.14204,54.876787 81.162836,84.996995 129.62435,56.454004 C 3.7608978,53.875124 16.385662,-20.152632 -22.803382,-60.307046 -39.507551,-78.8735 -64.208315,-89.853829 -89.195312,-89.695312 Z m 0,1 C -33.345685,-90.7254 12.594081,-31.415724 -3.2920133,22.168563 -15.292681,76.442976 -83.554312,106.20846 -131.47617,77.99161 c -49.64811,-24.714062 -62.12069,-97.922518 -23.37642,-137.630981 16.51886,-18.361132 40.94825,-29.213094 65.657278,-29.055941 z"
           id="path180" />
      </g>
    </g>
    <g
       id="g184"
       style="fill:#fce864;fill-opacity:1;stroke:none;stroke-width:0.99975002;stroke-dasharray:none">
      <g
         id="g190"
         style="fill:#fce864;fill-opacity:1;stroke:none;stroke-width:0.99975002;stroke-dasharray:none">
        <g
           id="g192"
           style="fill:#fce864;fill-opacity:1;stroke:none;stroke-width:0.99975002;stroke-dasharray:none">
          <path
             d="m 451.095,857.185 c 2.64109,-47.72654 47.37876,-83.34225 93.70938,-83.1828 46.43322,-5.47207 79.07054,-40.09308 109.76943,-71.77871 32.61634,-28.3353 54.60965,-68.14503 57.25032,-111.71849 9.9033,-57.64223 82.52368,-89.76595 131.86727,-58.87961 49.69303,26.42128 60.19943,101.62338 18.60647,140.11936 -25.69857,30.74502 -67.73614,22.47021 -101.03431,36.07647 -41.40015,16.36336 -68.66796,53.22392 -99.54975,83.47471 -27.2238,28.71363 -29.71514,68.77197 -38.35009,104.98873 -18.71234,55.22681 -94.85323,75.75359 -138.89283,38.01318 C 461.4074,916.21353 448.47414,886.38747 451.095,857.185 Z"
             style="fill:#fce864;stroke:none;fill-opacity:1;stroke-width:0.99975002;stroke-dasharray:none"
             id="path202" />
        </g>
      </g>
    </g>
    <g
       id="g206"
       clip-path="url(#clipPath210)"
       style="fill:#fce864;fill-opacity:1;stroke:none;stroke-width:0.99975002;stroke-dasharray:none">
      <g
         id="g212"
         transform="translate(806.5998,697.7988)"
         style="fill:#fce864;fill-opacity:1;stroke:none;stroke-width:0.99975002;stroke-dasharray:none">
        <path
           style="color:#000000;fill:#fce864;stroke-miterlimit:10;fill-opacity:1;stroke:none;stroke-width:0.99975002;stroke-dasharray:none"
           d="m -4.2207031,-178.52734 c -47.9800939,-2.96077 -91.7639429,38.44921 -93.2206749,86.178065 -4.441742,44.406079 -34.699082,78.34731 -65.883132,107.366082 -29.0652,32.221323 -66.07866,60.300775 -111.2126,62.321084 -59.04971,2.967769 -99.92088,72.488449 -74.16192,125.522609 21.21975,53.08359 96.41478,71.37306 139.21952,32.91242 35.0215,-24.30224 29.02544,-69.13792 42.46206,-104.17697 15.33259,-39.117174 50.20412,-64.437646 78.185825,-94.056333 C -60.841273,9.8958742 -21.505416,2.2337176 15.904378,-2.280459 71.67213,-15.271565 100.59587,-86.562829 69.694038,-134.63619 54.527131,-160.54934 25.832888,-177.71024 -4.2207031,-178.52734 Z m -0.033203,1 c 54.8432211,0.0537 98.3872801,58.81298 82.5521491,111.308929 -9.907602,41.608576 -51.324876,67.2432663 -92.43789,67.2844261 -45.092006,4.7870556 -78.303561,36.7894859 -107.892413,68.0422239 -31.97434,28.093123 -55.14176,67.019781 -56.77525,110.380441 -6.19975,58.1297 -76.92959,94.46722 -127.83481,66.37281 -52.30966,-24.15863 -65.6745,-101.592 -23.18838,-141.28034 29.92336,-34.594924 80.33775,-20.630014 115.82844,-44.792172 32.70882,-20.729833 57.67236,-51.228248 84.90778,-78.383098 26.78682,-28.264886 30.203005,-67.62731 39.270418,-103.28682 13.374431,-34.07369 48.913439,-57.46476 85.5699559,-55.6464 z"
           id="path214" />
      </g>
    </g>
    <g
       id="g218"
       style="fill:#fce864;fill-opacity:1;stroke:none;stroke-width:0.99975002;stroke-dasharray:none">
      <g
         id="g224"
         style="fill:#fce864;fill-opacity:1;stroke:none;stroke-width:0.99975002;stroke-dasharray:none">
        <g
           id="g226"
           style="fill:#fce864;fill-opacity:1;stroke:none;stroke-width:0.99975002;stroke-dasharray:none">
          <path
             d="m 191.965,601.604 c 2.64113,-47.7263 47.37871,-83.34154 93.70905,-83.18185 46.43291,-5.47296 79.06967,-40.09435 109.76911,-71.77931 32.61663,-28.3348 54.60982,-68.14452 57.25013,-111.71785 9.90364,-57.64208 82.52344,-89.76743 131.86744,-58.88056 49.69285,26.4218 60.20032,101.6238 18.60702,140.12032 -25.69855,30.74492 -67.73606,22.47019 -101.03428,36.07614 -41.39964,16.36388 -68.66866,53.2236 -99.55062,83.47433 -27.22335,28.71377 -29.714,68.77197 -38.34921,104.98845 -18.71296,55.22617 -94.85338,75.75517 -138.89476,38.017 C 202.27414,660.6357 189.34363,630.80709 191.965,601.604 Z"
             style="fill:#fce864;stroke:none;fill-opacity:1;stroke-width:0.99975002;stroke-dasharray:none"
             id="path236" />
        </g>
      </g>
    </g>
    <g
       id="g240"
       clip-path="url(#clipPath244)"
       style="fill:#fce864;fill-opacity:1;stroke:none;stroke-width:0.99975002;stroke-dasharray:none">
      <g
         id="g246"
         transform="translate(547.4694,442.2182)"
         style="fill:#fce864;fill-opacity:1;stroke:none;stroke-width:0.99975002;stroke-dasharray:none">
        <path
           style="color:#000000;fill:#fce864;stroke-miterlimit:10;fill-opacity:1;stroke:none;stroke-width:0.99975002;stroke-dasharray:none"
           d="m -4.2207031,-178.52734 c -47.9800939,-2.96077 -91.7639429,38.44921 -93.2206749,86.178065 -4.441742,44.406079 -34.699082,78.34731 -65.883132,107.366082 -29.0652,32.221323 -66.07866,60.300775 -111.2126,62.321084 -59.04938,2.96857 -99.92103,72.488259 -74.16192,125.522609 21.21968,53.08342 96.4144,71.37301 139.21919,32.91273 35.02133,-24.3024 29.02591,-69.13807 42.46239,-104.17728 15.33259,-39.117174 50.20412,-64.437646 78.185825,-94.056333 C -60.841273,9.8958742 -21.505416,2.2337176 15.904378,-2.280459 71.67213,-15.271565 100.59587,-86.562829 69.694038,-134.63619 54.527131,-160.54934 25.832888,-177.71024 -4.2207031,-178.52734 Z m -0.033203,1 c 54.8432211,0.0537 98.3872801,58.81298 82.5521491,111.308929 -9.907602,41.608576 -51.324876,67.2432663 -92.43789,67.2844261 -45.092006,4.7870556 -78.303561,36.7894859 -107.892413,68.0422239 -31.97441,28.093137 -55.14169,67.019861 -56.77533,110.380531 -6.19994,58.12974 -76.92945,94.46714 -127.83473,66.37272 -52.30995,-24.1588 -65.67425,-101.59226 -23.18838,-141.28094 29.93869,-34.616218 80.34223,-20.636342 115.82844,-44.791525 32.70882,-20.729833 57.67236,-51.228248 84.90778,-78.383098 26.78682,-28.264885 30.203005,-67.627309 39.270418,-103.286817 13.374447,-34.07373 48.913387,-57.46467 85.5699559,-55.64645 z"
           id="path248" />
      </g>
    </g>
  </g>
</svg>
