<?xml version="1.0" standalone="no"?>
<!DOCTYPE svg PUBLIC "-//W3C//DTD SVG 20010904//EN"
 "http://www.w3.org/TR/2001/REC-SVG-20010904/DTD/svg10.dtd">
<svg version="1.0" xmlns="http://www.w3.org/2000/svg"
 width="930.000000pt" height="930.000000pt" viewBox="0 0 930.000000 930.000000"
 preserveAspectRatio="xMidYMid meet">
<metadata>
Created by potrace 1.14, written by Peter Selinger 2001-2017
</metadata>
<g transform="translate(0.000000,930.000000) scale(0.100000,-0.100000)"
fill="#000000" stroke="none">
<path d="M1070 9243 c-107 -13 -310 -70 -373 -105 -12 -7 -27 -13 -32 -14 -29
-5 -175 -103 -260 -174 -90 -76 -207 -217 -256 -310 -13 -25 -27 -47 -30 -50
-4 -3 -21 -50 -39 -105 -49 -147 -47 -140 -55 -180 -3 -16 -10 -48 -15 -70 -5
-22 -9 -106 -9 -186 1 -118 6 -165 25 -249 14 -57 29 -109 34 -115 6 -7 8 -14
5 -17 -5 -5 103 -230 115 -238 4 -3 16 -19 26 -36 41 -67 220 -264 240 -264 5
0 15 -9 22 -20 7 -11 19 -20 26 -20 8 0 16 -4 18 -8 15 -38 246 -151 385 -189
91 -24 112 -26 288 -26 162 0 202 4 270 22 44 12 90 24 102 26 75 17 258 111
356 183 63 47 191 172 232 227 16 22 32 42 36 45 13 12 81 132 105 186 27 62
63 165 69 199 2 11 6 31 9 44 29 129 28 355 -3 516 -32 164 -132 369 -251 513
-58 71 -198 197 -253 228 -63 35 -265 135 -282 139 -11 2 -38 9 -60 15 -121
34 -320 48 -445 33z"/>
<path d="M4520 9238 c-94 -12 -125 -16 -127 -19 -4 -2 -7 -3 -58 -13 -22 -4
-46 -12 -52 -18 -7 -6 -13 -8 -13 -5 0 8 -130 -46 -192 -81 -94 -51 -103 -57
-111 -69 -4 -7 -14 -13 -22 -13 -7 0 -15 -3 -17 -8 -1 -4 -23 -23 -48 -42 -85
-67 -208 -204 -237 -266 -9 -19 -20 -34 -24 -34 -4 0 -13 -17 -20 -37 -6 -21
-15 -40 -19 -43 -8 -7 -74 -169 -77 -195 -2 -10 -7 -22 -11 -25 -4 -3 -7 -12
-7 -20 1 -8 -2 -22 -6 -30 -13 -27 -23 -133 -23 -245 -1 -124 7 -198 32 -288
6 -20 7 -38 4 -42 -4 -3 -2 -9 4 -13 5 -4 16 -27 23 -51 7 -24 25 -69 39 -100
14 -31 26 -59 27 -63 0 -4 6 -13 13 -20 6 -6 12 -15 12 -19 0 -10 53 -90 106
-159 62 -82 153 -172 166 -164 6 4 8 3 5 -3 -3 -5 3 -17 14 -26 10 -9 19 -14
19 -10 0 3 11 -6 24 -22 13 -15 29 -24 35 -21 6 4 11 1 11 -6 1 -22 142 -101
248 -139 31 -11 64 -23 72 -26 8 -4 18 -6 21 -5 4 1 22 -3 40 -8 19 -6 54 -13
79 -16 25 -3 52 -7 60 -9 8 -3 58 -7 110 -10 105 -7 140 -11 185 -21 17 -4 40
-7 53 -7 12 -1 22 -5 22 -10 0 -5 7 -7 15 -3 8 3 15 1 15 -5 0 -6 7 -9 15 -5
8 3 15 0 15 -5 0 -7 11 -9 25 -7 13 3 22 1 19 -4 -3 -4 3 -11 13 -14 81 -25
290 -121 351 -162 114 -77 155 -102 163 -102 5 0 9 -4 9 -8 0 -5 24 -25 53
-45 28 -20 68 -51 87 -68 19 -17 60 -52 90 -78 30 -27 105 -99 165 -161 61
-62 148 -149 194 -194 46 -44 96 -93 111 -108 15 -15 31 -24 35 -20 3 4 5 2 3
-5 -2 -6 14 -27 34 -46 21 -19 35 -37 31 -41 -3 -3 0 -6 9 -6 8 0 20 -12 26
-26 7 -14 17 -22 22 -19 6 4 9 3 8 -2 -3 -7 43 -69 87 -119 6 -7 19 -24 30
-40 11 -15 32 -43 48 -63 15 -20 34 -45 42 -56 8 -10 15 -23 15 -27 0 -5 8
-17 18 -28 9 -10 26 -36 37 -57 11 -21 22 -40 25 -43 6 -6 85 -161 86 -169 0
-3 8 -24 18 -46 27 -61 65 -169 71 -205 3 -18 10 -40 14 -49 5 -9 11 -34 14
-56 3 -22 9 -49 13 -59 6 -15 4 -17 -6 -11 -8 5 -11 4 -7 -3 4 -5 9 -34 12
-64 9 -89 19 -162 29 -203 2 -5 6 -23 10 -40 64 -253 261 -527 491 -680 33
-22 62 -43 63 -47 2 -5 12 -8 22 -8 10 0 20 -3 22 -7 2 -5 26 -19 53 -32 28
-13 62 -30 78 -38 15 -8 27 -12 27 -8 0 3 14 -2 31 -10 17 -9 33 -14 37 -11 3
3 10 2 16 -3 13 -10 92 -29 156 -38 104 -13 320 -4 415 18 22 5 49 12 59 14
105 25 277 106 385 183 102 73 291 268 291 301 0 5 4 11 8 13 14 5 87 137 119
213 26 61 41 110 59 190 19 81 25 319 12 410 -11 72 -37 179 -56 235 -29 82
-110 248 -132 270 -3 3 -19 25 -35 50 -31 46 -210 229 -261 266 -41 29 -187
114 -197 114 -5 0 -23 6 -40 14 -76 35 -122 46 -256 61 -30 4 -63 9 -75 12
-12 2 -34 6 -49 9 -84 12 -150 24 -247 46 -30 7 -59 13 -65 13 -11 2 -89 24
-115 33 -8 2 -22 6 -30 7 -48 7 -257 92 -349 142 -80 43 -198 121 -266 176
-87 70 -678 655 -770 762 -33 39 -68 77 -77 86 -10 9 -18 19 -18 23 0 5 -7 15
-52 68 -10 12 -18 25 -18 31 0 5 -7 6 -16 3 -8 -3 -12 -2 -9 4 10 15 -4 47
-22 55 -15 5 -15 4 0 -13 9 -10 17 -22 17 -26 0 -5 -8 2 -19 15 -10 13 -16 30
-13 38 3 9 1 12 -6 7 -8 -4 -10 -2 -6 8 3 8 -4 24 -15 35 -13 13 -16 21 -8 21
6 0 4 5 -6 11 -9 6 -15 14 -12 20 4 5 1 9 -4 9 -6 0 -11 7 -11 15 0 8 -5 15
-12 15 -6 0 -8 3 -5 6 3 4 1 16 -5 28 -7 11 -13 23 -13 26 -1 3 -9 23 -19 45
-10 22 -23 58 -31 80 -34 103 -54 173 -59 200 -2 17 -5 30 -6 30 -1 0 -3 9 -5
20 -1 11 -5 34 -9 50 -6 30 -8 39 -26 130 -5 28 -12 64 -16 80 -3 17 -7 40 -8
53 0 12 -7 22 -15 22 -11 0 -11 3 -1 15 10 12 10 15 0 15 -7 0 -10 6 -7 14 3
8 3 17 -1 20 -3 4 -7 12 -9 19 -1 7 -11 53 -22 102 -20 91 -36 137 -83 243
-11 24 -43 79 -80 137 -19 28 -174 185 -184 185 -5 0 -26 16 -46 35 -20 19
-41 35 -46 35 -5 0 -17 9 -27 20 -10 11 -24 20 -32 20 -7 0 -13 4 -13 8 0 14
-178 96 -250 116 -36 10 -72 21 -80 24 -8 3 -24 6 -35 7 -11 1 -34 5 -50 9
-44 12 -260 14 -335 4z"/>
<path d="M7924 9235 c-272 -49 -474 -153 -670 -343 -125 -120 -213 -257 -273
-420 -17 -45 -30 -83 -29 -85 1 -1 -6 -33 -15 -72 -39 -161 -42 -308 -11 -480
1 -5 3 -12 4 -15 1 -3 3 -16 6 -30 2 -14 12 -47 21 -75 10 -27 18 -52 18 -55
8 -32 78 -175 87 -178 4 -2 8 -8 8 -13 0 -37 212 -287 307 -360 109 -85 282
-176 388 -204 17 -5 35 -9 40 -11 79 -23 135 -28 290 -28 131 0 236 7 254 18
4 3 21 8 37 11 16 3 34 7 39 9 6 2 24 6 40 11 57 14 285 124 285 137 0 3 10
10 23 14 12 4 24 9 27 13 3 3 32 29 65 56 75 63 112 100 178 178 53 62 122
169 129 197 2 8 6 17 9 20 14 11 77 189 85 240 2 8 5 29 8 45 2 17 5 30 6 30
15 0 17 347 2 410 -6 28 -14 61 -16 75 -8 49 -57 183 -96 261 -62 125 -158
262 -223 318 -10 9 -35 31 -55 50 -20 18 -57 47 -82 64 -25 17 -47 33 -50 36
-3 3 -32 19 -65 36 -33 16 -66 34 -73 39 -37 26 -179 75 -297 102 -57 13 -328
12 -401 -1z"/>
<path d="M1145 5841 c-3 -2 -26 -5 -52 -7 -98 -6 -179 -22 -283 -56 -71 -23
-255 -111 -277 -134 -8 -8 -17 -14 -21 -14 -4 0 -19 -10 -34 -23 -15 -12 -41
-33 -58 -46 -85 -65 -202 -201 -250 -291 -14 -25 -28 -47 -33 -48 -4 -2 -5 -8
-1 -13 3 -5 0 -9 -5 -9 -6 0 -10 -3 -9 -7 4 -14 -26 -83 -35 -83 -4 0 -6 -3
-4 -8 3 -4 -3 -24 -13 -44 -10 -20 -23 -61 -30 -90 -7 -29 -15 -57 -18 -62
-16 -29 -24 -341 -10 -421 4 -22 10 -59 14 -83 4 -23 11 -45 15 -48 5 -3 9
-15 9 -28 0 -42 89 -240 136 -303 13 -17 24 -34 24 -38 0 -5 45 -64 95 -124
43 -51 67 -71 77 -65 6 4 8 2 4 -4 -3 -6 5 -22 19 -36 14 -14 25 -20 26 -13 0
7 5 2 11 -10 6 -13 19 -25 29 -28 11 -4 19 -11 19 -17 0 -5 7 -7 16 -4 8 3 13
2 9 -3 -9 -15 26 -43 47 -38 10 3 16 2 13 -3 -3 -4 1 -12 8 -18 24 -20 172
-92 190 -92 9 0 17 -4 17 -9 0 -5 14 -11 30 -14 17 -4 36 -8 43 -10 33 -10
135 -30 162 -32 17 -2 30 -4 30 -5 0 -2 68 -9 160 -14 44 -3 89 -7 100 -9 76
-16 101 -20 108 -19 4 1 7 -2 7 -8 0 -5 7 -7 15 -4 8 4 15 1 15 -5 0 -6 6 -8
14 -5 8 3 17 1 20 -5 4 -6 13 -8 21 -4 8 3 15 1 15 -5 0 -5 12 -13 26 -16 59
-15 363 -163 384 -187 3 -3 34 -25 70 -49 56 -38 186 -135 200 -150 3 -3 38
-33 77 -68 69 -60 137 -127 265 -258 113 -118 242 -239 250 -236 5 1 7 -1 5
-5 -7 -11 19 -34 28 -25 4 4 6 2 5 -3 -5 -22 1 -33 20 -38 11 -3 24 -16 29
-30 5 -14 13 -26 18 -28 4 -2 31 -31 58 -64 28 -33 52 -62 55 -65 3 -3 27 -34
53 -70 27 -36 55 -73 63 -83 8 -9 14 -19 14 -22 0 -2 13 -23 29 -47 33 -50 55
-88 100 -178 18 -36 37 -73 42 -83 8 -15 51 -124 54 -137 1 -3 4 -12 8 -20 13
-33 42 -137 51 -185 1 -5 5 -16 10 -24 5 -8 3 -16 -5 -22 -9 -6 -10 -9 -2 -9
6 0 12 -8 12 -18 0 -44 10 -181 17 -212 3 -19 7 -42 8 -50 2 -8 6 -25 10 -37
4 -12 8 -30 10 -40 10 -46 107 -269 125 -283 3 -3 13 -18 21 -34 35 -67 207
-251 293 -312 17 -13 37 -27 42 -31 27 -21 94 -62 130 -78 22 -11 43 -24 47
-29 4 -6 8 -7 8 -2 0 4 10 2 23 -6 18 -13 90 -41 107 -43 3 0 11 -4 18 -8 6
-5 12 -6 12 -2 0 3 9 1 20 -5 11 -6 39 -13 62 -16 24 -3 59 -10 78 -15 37 -9
296 -6 365 5 22 4 58 12 80 17 22 6 40 11 40 10 0 -7 156 54 215 84 190 95
381 266 475 425 6 10 16 24 22 31 22 28 104 200 98 208 -3 5 0 11 5 13 6 2 12
15 14 29 1 13 5 29 9 35 9 15 21 78 31 159 4 28 9 65 11 82 3 22 1 33 -8 33
-7 0 -8 3 -2 8 12 9 13 32 1 51 -6 9 -5 12 2 7 7 -4 10 1 9 14 -1 11 -6 20
-12 20 -5 0 -3 5 5 10 8 5 10 10 5 10 -6 0 -10 15 -9 34 2 44 -27 189 -56 281
-21 66 -87 214 -100 225 -4 3 -15 21 -26 40 -10 19 -21 37 -24 40 -3 3 -29 34
-57 70 -68 86 -163 176 -244 234 -69 48 -239 133 -277 139 -12 2 -25 6 -28 10
-4 4 -17 7 -29 7 -11 0 -26 5 -33 12 -9 9 -12 9 -12 0 0 -8 -7 -9 -24 -2 -13
5 -37 9 -52 9 -16 0 -40 2 -54 6 -14 3 -41 8 -60 11 -19 2 -44 6 -55 9 -23 5
-67 13 -110 20 -16 3 -41 7 -55 10 -14 3 -38 8 -55 11 -16 2 -48 10 -70 16
-22 6 -49 13 -60 15 -26 6 -36 9 -55 15 -8 3 -58 20 -110 38 -101 34 -149 54
-245 102 -60 30 -211 126 -236 150 -8 7 -27 22 -43 32 -48 31 -653 627 -766
755 -36 41 -75 85 -87 98 -13 13 -23 27 -23 31 0 4 -14 21 -30 39 -17 18 -30
36 -30 40 0 4 -10 19 -23 33 -12 14 -18 19 -12 10 6 -10 2 -8 -13 4 -23 20
-30 32 -12 21 6 -3 10 -3 10 0 0 12 -34 65 -41 65 -4 0 -10 11 -13 25 -4 14
-11 23 -16 20 -6 -3 -7 1 -4 9 3 9 1 16 -6 16 -6 0 -8 5 -5 10 3 6 -1 13 -9
16 -9 3 -13 10 -10 15 3 6 2 15 -3 22 -18 23 -62 135 -56 141 4 3 2 6 -4 6 -5
0 -10 6 -10 13 0 6 -12 50 -26 97 -25 82 -37 135 -40 173 -1 9 -5 17 -10 17
-4 0 -6 4 -3 8 3 5 -6 62 -20 128 -13 65 -27 132 -30 149 -3 16 -10 33 -17 37
-7 4 -9 8 -6 8 4 0 -2 39 -13 88 -11 48 -22 96 -23 107 -6 39 -80 222 -95 235
-3 3 -15 21 -27 41 -29 51 -49 75 -128 154 -68 69 -252 213 -263 207 -2 -2 -8
1 -11 6 -17 26 -219 107 -321 128 -35 7 -44 8 -114 19 -21 3 -42 8 -47 11 -5
3 -9 0 -9 -6 0 -6 -5 -8 -12 -4 -12 8 -136 12 -143 5z m1505 -1931 c6 -11 8
-20 6 -20 -3 0 -10 9 -16 20 -6 11 -8 20 -6 20 3 0 10 -9 16 -20z m61 -97 c13
-16 12 -17 -3 -4 -17 13 -22 21 -14 21 2 0 10 -8 17 -17z"/>
<path d="M4550 5843 c0 -7 -13 -10 -32 -9 -18 2 -37 1 -43 -2 -5 -3 -18 -7
-30 -8 -44 -5 -124 -27 -205 -55 -278 -98 -531 -320 -660 -579 -41 -81 -80
-189 -80 -218 0 -10 -3 -22 -7 -26 -4 -3 -8 -12 -9 -19 -1 -7 -10 -52 -18
-102 -18 -97 -20 -249 -4 -330 5 -27 11 -64 13 -80 15 -106 143 -395 189 -427
7 -5 7 -8 1 -8 -5 0 -2 -5 8 -11 9 -5 17 -14 17 -20 0 -28 206 -230 298 -292
162 -109 310 -167 491 -193 52 -8 258 -8 311 -1 98 13 131 20 136 28 3 5 10 6
16 3 5 -4 20 -2 31 4 12 6 47 18 77 28 93 29 272 125 317 170 8 8 18 14 22 14
10 0 201 189 201 198 0 4 10 18 23 32 20 22 43 56 84 125 51 85 107 238 117
320 2 17 7 41 10 55 4 14 8 44 10 68 2 23 5 45 9 48 3 3 1 19 -3 35 -5 16 -6
29 -2 29 8 0 7 101 -2 156 -3 22 -8 58 -11 80 -2 23 -9 53 -14 68 -6 14 -8 26
-6 26 3 0 -2 16 -10 36 -8 20 -15 43 -15 50 0 8 -23 62 -50 120 -50 106 -115
212 -166 269 -14 17 -36 41 -48 55 -48 56 -221 190 -246 190 -4 0 -10 3 -12 8
-12 26 -317 150 -339 136 -5 -3 -9 -1 -9 4 0 5 -6 9 -12 9 -7 0 -38 4 -68 8
-91 13 -260 13 -260 1 0 -6 -5 -4 -10 4 -6 9 -10 10 -10 3z"/>
<path d="M1098 2436 c-1 -2 -28 -6 -58 -9 -76 -8 -234 -51 -311 -84 -65 -27
-210 -109 -219 -122 -3 -5 -10 -10 -17 -12 -20 -7 -202 -169 -190 -169 3 0
-12 -17 -32 -38 -45 -48 -71 -80 -71 -90 0 -5 -8 -17 -18 -28 -17 -19 -102
-186 -106 -208 -1 -6 -4 -15 -7 -21 -7 -11 -20 -64 -35 -134 -3 -14 -7 -28
-10 -33 -13 -21 -17 -66 -20 -223 -2 -142 0 -183 17 -250 11 -44 22 -91 25
-104 3 -14 8 -29 12 -35 3 -6 7 -17 8 -25 8 -48 150 -299 176 -309 4 -2 8 -10
8 -18 0 -19 216 -234 235 -234 9 0 13 -4 10 -10 -3 -5 -1 -10 5 -10 7 0 29
-13 50 -30 21 -16 41 -30 45 -30 4 0 24 -10 44 -22 20 -13 38 -23 41 -23 3 -1
23 -10 45 -22 22 -11 45 -22 50 -23 15 -4 37 -11 65 -21 81 -30 175 -42 340
-44 96 -2 182 1 191 6 9 4 31 10 50 13 19 2 45 7 59 11 14 3 32 8 40 10 8 2
15 4 15 5 0 1 9 3 21 5 12 3 42 13 67 24 26 11 47 17 47 13 0 -4 4 -2 8 3 4 6
39 26 77 45 39 19 72 37 75 40 3 3 28 20 55 39 57 39 59 41 138 116 52 49 93
95 147 161 59 72 181 326 166 342 -3 3 -1 11 4 17 9 11 19 55 36 155 3 14 6
84 9 155 3 113 -2 184 -20 273 -3 12 -7 34 -10 48 -3 15 -7 32 -8 38 -1 6 -4
13 -7 16 -4 3 -12 25 -19 50 -28 94 -120 266 -191 355 -113 142 -230 234 -414
325 -67 34 -132 62 -144 63 -12 1 -22 4 -22 7 0 4 -6 7 -12 8 -7 1 -35 6 -63
12 -27 7 -61 14 -75 17 -28 6 -296 13 -302 9z"/>
<path d="M7999 2436 c-2 -2 -24 -6 -49 -10 -157 -20 -324 -77 -460 -157 -123
-72 -296 -232 -368 -339 -20 -30 -40 -57 -43 -60 -4 -3 -27 -49 -53 -102 -39
-82 -71 -176 -91 -271 -2 -10 -6 -26 -9 -35 -27 -97 -26 -321 3 -444 5 -21 7
-38 5 -38 -3 0 2 -13 10 -29 9 -16 12 -31 9 -34 -3 -4 -2 -12 3 -19 6 -7 16
-31 23 -53 20 -62 88 -191 144 -274 57 -83 249 -282 272 -281 3 0 13 -8 24
-17 86 -81 326 -187 472 -210 98 -15 366 -8 449 11 102 24 105 24 108 26 1 2
7 4 12 5 6 1 11 3 13 5 1 1 11 3 22 5 10 2 28 8 40 14 11 5 52 24 90 42 161
74 355 236 455 379 13 19 29 40 36 47 6 6 17 25 24 42 7 17 16 31 21 31 5 0 8
3 7 8 -1 4 10 33 25 65 15 32 27 61 27 66 0 4 7 21 14 37 8 16 18 45 21 64 3
19 10 50 15 69 5 19 7 38 4 43 -3 4 -2 8 3 8 13 0 22 234 13 345 -5 60 -36
204 -55 255 -27 74 -69 165 -80 172 -5 4 -6 8 -2 8 4 0 -8 25 -28 55 -19 31
-35 60 -35 65 0 6 -4 10 -10 10 -5 0 -10 4 -10 10 0 14 -32 51 -120 141 -89
90 -156 141 -265 198 -44 24 -86 47 -92 53 -7 6 -13 7 -13 3 0 -4 -6 -3 -12 3
-16 13 -118 48 -183 62 -27 7 -59 14 -70 17 -23 6 -310 14 -316 9z"/>
</g>
</svg>
